<svg xmlns="http://www.w3.org/2000/svg" viewBox="0 0 64 64"><path fill="#2da0c7" d="M61.68 22.12H2.32C1.04 22.12 0 21.08 0 19.8c0-1.28 1.04-2.32 2.32-2.32h59.36c1.28 0 2.32 1.04 2.32 2.32 0 1.28-1.04 2.32-2.32 2.32zm0 12.2H2.32C1.04 34.32 0 33.28 0 32c0-1.28 1.04-2.32 2.32-2.32h59.36c1.28 0 2.32 1.04 2.32 2.32 0 1.28-1.04 2.32-2.32 2.32zm0 12.2H2.32C1.04 46.52 0 45.48 0 44.2c0-1.28 1.04-2.32 2.32-2.32h59.36c1.28 0 2.32 1.04 2.32 2.32 0 1.28-1.04 2.32-2.32 2.32z" class="color00aeef svgShape"></path></svg>